ffprobe version n2.6.1 Copyright (c) 2007-2015 the FFmpeg developers
  built with gcc 4.8 (Ubuntu 4.8.2-19ubuntu1)
  configuration: --prefix=/opt/ffmpeg --extra-cflags=-I/opt/ffmpeg/include --extra-ldflags=-L/opt/ffmpeg/lib --extra-libs=-ldl --enable-gpl --enable-libass --enable-libfdk-aac --enable-libfreetype --enable-libmp3lame --enable-libtheora --enable-libvorbis --enable-libvpx --enable-libx264 --enable-libx265 --enable-nonfree
  libavutil      54. 20.100 / 54. 20.100
  libavcodec     56. 26.100 / 56. 26.100
  libavformat    56. 25.101 / 56. 25.101
  libavdevice    56.  4.100 / 56.  4.100
  libavfilter     5. 11.102 /  5. 11.102
  libswscale      3.  1.101 /  3.  1.101
  libswresample   1.  1.100 /  1.  1.100
  libpostproc    53.  3.100 / 53.  3.100
Input #0, matroska,webm, from '/media/flaviopontes/Gigante/Filmes/Anime/Fairy Tail/[HorribleSubs] Fairy Tail S2 - 52 [720p].mkv':
  Metadata:
    encoder         : no_variable_data
    creation_time   : 1970-01-01 00:00:00
  Duration: 00:24:24.97, start: 0.000000, bitrate: 1902 kb/s
    Stream #0:0: Video: h264 (High), yuv420p, 1280x720 [SAR 1:1 DAR 16:9], 23.81 fps, 23.81 tbr, 1k tbn, 47.95 tbc (default) (forced)
    Stream #0:1: Audio: aac (LC), 44100 Hz, stereo, fltp (default) (forced)
    Stream #0:2: Subtitle: ass (default) (forced)
    Stream #0:3: Attachment: ttf
    Metadata:
      filename        : BAARS___.TTF
      mimetype        : application/x-truetype-font
Unsupported codec with id 98304 for input stream 3
